<mxfile host="65bd71144e" compressed="false">
    <diagram id="86R6ZRfhnQo9sD8B5-7s" name="Page-1">
        <mxGraphModel dx="2526" dy="784" grid="1" gridSize="10" guides="1" tooltips="1" connect="1" arrows="1" fold="1" page="1" pageScale="1" pageWidth="827" pageHeight="1169" background="#161923" math="0" shadow="0">
            <root>
                <mxCell id="0"/>
                <mxCell id="1" parent="0"/>
                <mxCell id="36" value="&lt;font style=&quot;font-size: 14px&quot;&gt;Normal Operator&lt;/font&gt;" style="rounded=0;whiteSpace=wrap;html=1;fontColor=#BCBDD0;labelBackgroundColor=none;fillColor=none;strokeColor=#bcbdd0;strokeWidth=3;fontSize=14;" parent="1" vertex="1">
                    <mxGeometry x="200" y="80" width="160" height="120" as="geometry"/>
                </mxCell>
                <mxCell id="52" value="&lt;i style=&quot;font-size: 14px&quot;&gt;DUTY&lt;/i&gt;" style="text;html=1;strokeColor=none;fillColor=none;align=center;verticalAlign=middle;whiteSpace=wrap;rounded=0;labelBackgroundColor=none;fontSize=14;fontColor=#BCBDD0;" parent="1" vertex="1">
                    <mxGeometry x="420" y="90" width="50" height="40" as="geometry"/>
                </mxCell>
                <mxCell id="53" value="" style="endArrow=classic;html=1;rounded=0;fontSize=14;fontColor=#BCBDD0;strokeColor=#bcbdd0;strokeWidth=3;exitX=1;exitY=0.25;exitDx=0;exitDy=0;entryX=0;entryY=0.5;entryDx=0;entryDy=0;" parent="1" source="36" target="52" edge="1">
                    <mxGeometry width="50" height="50" relative="1" as="geometry">
                        <mxPoint x="380" y="110" as="sourcePoint"/>
                        <mxPoint x="420" y="119" as="targetPoint"/>
                    </mxGeometry>
                </mxCell>
                <mxCell id="57" value="CLK" style="text;html=1;strokeColor=none;fillColor=none;align=center;verticalAlign=middle;whiteSpace=wrap;rounded=0;labelBackgroundColor=none;fontSize=14;fontColor=#BCBDD0;fontStyle=2" parent="1" vertex="1">
                    <mxGeometry x="210" y="31.26" width="60" height="20" as="geometry"/>
                </mxCell>
                <mxCell id="58" value="" style="endArrow=classic;html=1;rounded=0;fontSize=14;fontColor=#BCBDD0;strokeColor=#bcbdd0;strokeWidth=3;entryX=0.093;entryY=-0.003;entryDx=0;entryDy=0;exitX=0.5;exitY=1;exitDx=0;exitDy=0;entryPerimeter=0;" parent="1" source="57" edge="1">
                    <mxGeometry width="50" height="50" relative="1" as="geometry">
                        <mxPoint x="300" y="321.26" as="sourcePoint"/>
                        <mxPoint x="239.51999999999998" y="80.00000000000001" as="targetPoint"/>
                    </mxGeometry>
                </mxCell>
                <mxCell id="61" value="&lt;i style=&quot;font-size: 14px&quot;&gt;PHASE&lt;/i&gt;" style="text;html=1;strokeColor=none;fillColor=none;align=center;verticalAlign=middle;whiteSpace=wrap;rounded=0;labelBackgroundColor=none;fontSize=14;fontColor=#BCBDD0;" parent="1" vertex="1">
                    <mxGeometry x="420" y="150" width="60" height="40" as="geometry"/>
                </mxCell>
                <mxCell id="62" value="" style="endArrow=classic;html=1;rounded=0;fontSize=14;fontColor=#BCBDD0;strokeColor=#bcbdd0;strokeWidth=3;entryX=0;entryY=0.5;entryDx=0;entryDy=0;exitX=1;exitY=0.75;exitDx=0;exitDy=0;" parent="1" source="36" target="61" edge="1">
                    <mxGeometry width="50" height="50" relative="1" as="geometry">
                        <mxPoint x="370" y="180" as="sourcePoint"/>
                        <mxPoint x="420" y="179" as="targetPoint"/>
                    </mxGeometry>
                </mxCell>
                <mxCell id="63" value="" style="shape=flexArrow;endArrow=classic;html=1;rounded=0;labelBackgroundColor=default;fontFamily=Helvetica;fontSize=14;fontColor=#BCBDD0;strokeColor=#BCBDD0;strokeWidth=3;jumpStyle=arc;entryX=0;entryY=0.5;entryDx=0;entryDy=0;sketch=0;fillColor=#BCBDD0;exitX=1;exitY=0.5;exitDx=0;exitDy=0;" parent="1" source="67" target="36" edge="1">
                    <mxGeometry width="50" height="50" relative="1" as="geometry">
                        <mxPoint x="120" y="140" as="sourcePoint"/>
                        <mxPoint x="860" y="300" as="targetPoint"/>
                    </mxGeometry>
                </mxCell>
                <mxCell id="64" value="" style="endArrow=none;html=1;rounded=1;labelBackgroundColor=default;fontFamily=Helvetica;fontSize=14;fontColor=#BCBDD0;strokeColor=#BCBDD0;strokeWidth=3;shape=connector;" parent="1" edge="1">
                    <mxGeometry width="50" height="50" relative="1" as="geometry">
                        <mxPoint x="380" y="180" as="sourcePoint"/>
                        <mxPoint x="400" y="160" as="targetPoint"/>
                        <Array as="points">
                            <mxPoint x="390" y="170"/>
                        </Array>
                    </mxGeometry>
                </mxCell>
                <mxCell id="65" value="" style="endArrow=none;html=1;rounded=1;labelBackgroundColor=default;fontFamily=Helvetica;fontSize=14;fontColor=#BCBDD0;strokeColor=#BCBDD0;strokeWidth=3;shape=connector;" parent="1" edge="1">
                    <mxGeometry width="50" height="50" relative="1" as="geometry">
                        <mxPoint x="380" y="120" as="sourcePoint"/>
                        <mxPoint x="400" y="100" as="targetPoint"/>
                        <Array as="points">
                            <mxPoint x="390" y="110"/>
                        </Array>
                    </mxGeometry>
                </mxCell>
                <mxCell id="67" value="&lt;i style=&quot;font-size: 14px&quot;&gt;CPU_BUS&lt;/i&gt;" style="text;html=1;strokeColor=none;fillColor=none;align=center;verticalAlign=middle;whiteSpace=wrap;rounded=0;labelBackgroundColor=none;fontSize=14;fontColor=#BCBDD0;" parent="1" vertex="1">
                    <mxGeometry x="40" y="120" width="80" height="40" as="geometry"/>
                </mxCell>
            </root>
        </mxGraphModel>
    </diagram>
</mxfile>